<svg xmlns="http://www.w3.org/2000/svg" xmlns:svg="http://www.w3.org/2000/svg" id="Layer_1" width="132.667" height="50.667" x="0" y="0" enable-background="new 0 0 204.528 79.898" version="1.1" viewBox="0 0 124.375 47.5" xml:space="preserve"><metadata id="metadata4240"/><g id="layer2" transform="translate(5.7237251e-8,-0.31644541)"><rect style="fill:#000;fill-opacity:1;stroke:none;stroke-width:.70551258;stroke-opacity:1" id="rect5750" width="124.375" height="47.5" x="0" y=".316" ry="0"/></g><g id="layer1" transform="translate(5.7237251e-8,-0.31644541)" style="display:inline"><g id="g4196" transform="translate(-69.97852,-15.360318)" style="fill:#fff;stroke:#fff;stroke-width:.46874998;stroke-miterlimit:4;stroke-dasharray:none;stroke-opacity:1"><path id="path4198" d="m 76.22852,36.85449 c 0,-3.0791 1.40234,-4.60352 4.05469,-4.60352 1.49365,0 2.80469,0.70117 3.29248,1.70703 C 83.54542,33.47021 83.271,32.76904 83.271,31.82421 v -5 h 2.56055 V 49.5371 h -1.70703 l -0.54883,-1.46289 c -0.48779,1.00586 -1.79883,1.67676 -3.29248,1.67676 -2.65234,0 -4.05469,-1.49414 -4.05469,-4.57324 z m 2.56054,8.10938 c 0,1.43262 0.54883,2.22559 2.22559,2.22559 1.67676,0 2.25635,-0.79297 2.25635,-2.22559 v -7.896 c 0,-1.46338 -0.57959,-2.25586 -2.25635,-2.25586 -1.67676,0 -2.22559,0.79248 -2.22559,2.25586 z" style="fill:#fff;stroke:#fff;stroke-width:.46874998;stroke-miterlimit:4;stroke-dasharray:none;stroke-opacity:1"/></g><g id="g4200" transform="translate(-69.97852,-15.360318)" style="fill:#fff;stroke:#fff;stroke-width:.46874998;stroke-miterlimit:4;stroke-dasharray:none;stroke-opacity:1"><path id="path4202" d="m 98.85449,44.96387 c 0,3.0791 -1.70703,4.78711 -4.78613,4.78711 -3.07959,0 -4.81738,-1.70801 -4.81738,-4.78711 v -7.896 c 0,-3.0791 1.73779,-4.81689 4.81738,-4.81689 3.0791,0 4.78613,1.73779 4.78613,4.81689 v 5.21338 h -7.04248 v 2.68262 c 0,1.43262 0.57959,2.22559 2.25635,2.22559 1.67676,0 2.22559,-0.79297 2.22559,-2.22559 z m -2.56054,-7.896 c 0,-1.46338 -0.54883,-2.25586 -2.22559,-2.25586 -1.67676,0 -2.25635,0.79248 -2.25635,2.25586 v 2.65234 h 4.48193 v -2.65234 z" style="fill:#fff;stroke:#fff;stroke-width:.46874998;stroke-miterlimit:4;stroke-dasharray:none;stroke-opacity:1"/></g><g id="g4204" transform="translate(-69.97852,-15.360318)" style="fill:#fff;stroke:#fff;stroke-width:.46874998;stroke-miterlimit:4;stroke-dasharray:none;stroke-opacity:1"><path id="path4206" d="m 105.9082,49.53711 h -2.5 V 34.93359 h -1.95166 v -2.46924 h 1.95166 v -1.89014 c -0.0312,-2.68311 1.46289,-3.99365 3.71875,-3.96338 0.91504,0 2.10352,0.24365 3.11035,0.6709 l -0.58008,2.19482 c -0.88379,-0.5791 -3.71875,-1.52441 -3.74902,1.46338 v 1.52441 h 3.87109 l -0.63965,2.46924 h -3.23145 v 14.60353 z" style="fill:#fff;stroke:#fff;stroke-width:.46874998;stroke-miterlimit:4;stroke-dasharray:none;stroke-opacity:1"/></g><g id="g4208" transform="translate(-69.97852,-15.360318)" style="fill:#fff;stroke:#fff;stroke-width:.46874998;stroke-miterlimit:4;stroke-dasharray:none;stroke-opacity:1"><path id="path4210" d="m 118.27441,29.17188 c -1.55469,0 -2.68262,0.5791 -2.62207,2.31689 v 18.84131 c -0.0605,1.7373 1.06738,2.31641 2.62207,2.31641 v 2.56152 c -3.1709,0 -5.18262,-1.55469 -5.18262,-4.87793 V 31.48877 c 0,-3.32324 2.01172,-4.87793 5.18262,-4.87793 z" style="fill:#fff;stroke:#fff;stroke-width:.46874998;stroke-miterlimit:4;stroke-dasharray:none;stroke-opacity:1"/></g><g id="g4212" transform="translate(-69.97852,-15.360318)" style="fill:#fff;stroke:#fff;stroke-width:.46874998;stroke-miterlimit:4;stroke-dasharray:none;stroke-opacity:1"><path id="path4214" d="m 118.97559,36.85449 c 0,-3.0791 1.40234,-4.60352 4.05469,-4.60352 1.49414,0 2.80469,0.70117 3.29297,1.70703 -0.0312,-0.48779 -0.30566,-1.18896 -0.30566,-2.13379 v -5 h 2.56152 V 49.5371 h -1.70801 l -0.54785,-1.46289 c -0.48828,1.00586 -1.79883,1.67676 -3.29297,1.67676 -2.65234,0 -4.05469,-1.49414 -4.05469,-4.57324 z m 2.56054,8.10938 c 0,1.43262 0.54883,2.22559 2.22559,2.22559 1.67676,0 2.25586,-0.79297 2.25586,-2.22559 v -7.896 c 0,-1.46338 -0.5791,-2.25586 -2.25586,-2.25586 -1.67676,0 -2.22559,0.79248 -2.22559,2.25586 z" style="fill:#fff;stroke:#fff;stroke-width:.46874998;stroke-miterlimit:4;stroke-dasharray:none;stroke-opacity:1"/></g><g id="g4216" transform="translate(-69.97852,-15.360318)" style="fill:#fff;stroke:#fff;stroke-width:.46874998;stroke-miterlimit:4;stroke-dasharray:none;stroke-opacity:1"><path id="path4218" d="m 141.60156,44.96387 c 0,3.0791 -1.70703,4.78711 -4.78613,4.78711 -3.0791,0 -4.81738,-1.70801 -4.81738,-4.78711 v -7.896 c 0,-3.0791 1.73828,-4.81689 4.81738,-4.81689 3.0791,0 4.78613,1.73779 4.78613,4.81689 v 5.21338 h -7.04199 v 2.68262 c 0,1.43262 0.5791,2.22559 2.25586,2.22559 1.67676,0 2.22559,-0.79297 2.22559,-2.22559 z m -2.56054,-7.896 c 0,-1.46338 -0.54883,-2.25586 -2.22559,-2.25586 -1.67676,0 -2.25586,0.79248 -2.25586,2.25586 v 2.65234 h 4.48145 z" style="fill:#fff;stroke:#fff;stroke-width:.46874998;stroke-miterlimit:4;stroke-dasharray:none;stroke-opacity:1"/></g><g id="g4220" transform="translate(-69.97852,-15.360318)" style="fill:#fff;stroke:#fff;stroke-width:.46874998;stroke-miterlimit:4;stroke-dasharray:none;stroke-opacity:1"><path id="path4222" d="m 151.26758,49.53711 h -3.84082 l -3.38477,-17.07275 h 2.77441 l 2.53125,15.15186 2.53027,-15.15186 h 2.77441 z" style="fill:#fff;stroke:#fff;stroke-width:.46874998;stroke-miterlimit:4;stroke-dasharray:none;stroke-opacity:1"/></g><g id="g4224" transform="translate(-69.97852,-15.360318)" style="fill:#fff;stroke:#fff;stroke-width:.46874998;stroke-miterlimit:4;stroke-dasharray:none;stroke-opacity:1"><path id="path4226" d="m 155.30566,26.61084 c 3.1709,0 5.18359,1.55469 5.18359,4.87793 v 18.84131 c 0,3.32324 -2.0127,4.87793 -5.18359,4.87793 v -2.56152 c 1.55566,0 2.68359,-0.5791 2.62207,-2.31641 V 31.48877 c 0.0615,-1.73779 -1.06641,-2.31689 -2.62207,-2.31689 z" style="fill:#fff;stroke:#fff;stroke-width:.46874998;stroke-miterlimit:4;stroke-dasharray:none;stroke-opacity:1"/></g><g id="g4228" transform="translate(-69.97852,-15.360318)" style="fill:#fff;stroke:#fff;stroke-width:.46874998;stroke-miterlimit:4;stroke-dasharray:none;stroke-opacity:1"><path id="path4230" d="m 173.54102,44.96387 c 0,3.0791 -1.70703,4.78711 -4.78613,4.78711 -3.0791,0 -4.81738,-1.70801 -4.81738,-4.78711 v -7.896 c 0,-3.0791 1.73828,-4.81689 4.81738,-4.81689 3.0791,0 4.78613,1.73779 4.78613,4.81689 v 5.21338 h -7.04199 v 2.68262 c 0,1.43262 0.5791,2.22559 2.25586,2.22559 1.67676,0 2.22559,-0.79297 2.22559,-2.22559 z m -2.56055,-7.896 c 0,-1.46338 -0.54883,-2.25586 -2.22559,-2.25586 -1.67676,0 -2.25586,0.79248 -2.25586,2.25586 v 2.65234 h 4.48145 z" style="fill:#fff;stroke:#fff;stroke-width:.46874998;stroke-miterlimit:4;stroke-dasharray:none;stroke-opacity:1"/></g><g id="g4232" transform="translate(-69.97852,-15.360318)" style="fill:#fff;stroke:#fff;stroke-width:.46874998;stroke-miterlimit:4;stroke-dasharray:none;stroke-opacity:1"><path id="path4234" d="m 176.75586,32.46436 h 2.56055 v 12.49951 c 0,1.46387 0.54883,2.22559 2.22559,2.22559 1.67676,0 2.25684,-0.76172 2.25684,-2.22559 V 32.46436 h 2.56055 v 17.07275 h -1.70703 l -0.54883,-1.46289 c -0.48828,1.00586 -1.79883,1.67676 -3.29297,1.67676 -2.65234,0 -4.05469,-1.49414 -4.05469,-4.57324 V 32.46436 Z" style="fill:#fff;stroke:#fff;stroke-width:.46874998;stroke-miterlimit:4;stroke-dasharray:none;stroke-opacity:1"/></g></g></svg>